<?xml version="1.0" encoding="UTF-8" standalone="no"?>
<!-- Created with Inkscape (http://www.inkscape.org/) -->

<svg
   width="238.125mm"
   height="238.125mm"
   viewBox="0 0 238.125 238.125"
   version="1.1"
   id="svg1"
   xml:space="preserve"
   xmlns:inkscape="http://www.inkscape.org/namespaces/inkscape"
   xmlns:sodipodi="http://sodipodi.sourceforge.net/DTD/sodipodi-0.dtd"
   xmlns="http://www.w3.org/2000/svg"
   xmlns:svg="http://www.w3.org/2000/svg"><sodipodi:namedview
     id="namedview1"
     pagecolor="#ffffff"
     bordercolor="#000000"
     borderopacity="0.25"
     inkscape:showpageshadow="2"
     inkscape:pageopacity="0.0"
     inkscape:pagecheckerboard="0"
     inkscape:deskcolor="#d1d1d1"
     inkscape:document-units="mm"><inkscape:page
       x="0"
       y="0"
       width="238.125"
       height="238.125"
       id="page2"
       margin="0"
       bleed="0" /></sodipodi:namedview><defs
     id="defs1" /><g
     inkscape:label="ieq"
     inkscape:groupmode="layer"
     id="layer1"
     transform="translate(14.686447,-20.119996)"><path
       style="fill:#fdcb00"
       d="m 134.4429,108.68568 -14.75052,-6.92745 v -0.17051 -0.1705 l 7.26846,-5.002834 7.26847,-5.00283 0.008,-0.145715 0.008,-0.145715 -1.12448,-0.554585 -1.12448,-0.554586 -1.85872,-1.315321 -1.85872,-1.31532 -1.48909,-1.360939 -1.48908,-1.36094 -1.45731,-1.915106 -1.45732,-1.915107 -0.93603,-1.719791 -0.93602,-1.719792 -0.93737,-2.805007 -0.93736,-2.805008 -0.56683,-3.148117 -0.56684,-3.148118 -0.004,-5.55625 -0.004,-5.556251 0.56622,-3.704166 0.56622,-3.704167 0.79965,-3.270423 0.79965,-3.270422 0.2186,-0.390616 0.2186,-0.390616 1.03493,1.17937 1.03493,1.179369 1.0445,2.349377 1.0445,2.349378 1.07217,1.808794 1.07217,1.808795 1.19062,1.400398 1.19063,1.400397 1.42012,1.206125 1.42011,1.206124 1.82006,0.956412 1.82006,0.956413 1.46715,0.504775 1.46716,0.504776 3.55299,0.67822 3.553,0.678221 2.267,0.65695 2.267,0.656951 1.82924,0.92119 1.82924,0.92119 0.93875,0.824231 0.93874,0.824231 v -1.469594 -1.469595 l 0.29335,-1.402085 0.29334,-1.402086 0.80444,-1.526207 0.80444,-1.526207 1.05238,-0.950767 1.05239,-0.950768 1.75244,-0.820567 1.75243,-0.820568 2.39647,-0.105227 2.39646,-0.105227 1.51783,0.3151 1.51783,0.3151 2.03883,1.021767 2.03883,1.021768 2.48417,2.23744 2.48417,2.237441 1.61687,0.958579 1.61687,0.958579 1.36349,0.431492 1.36348,0.431493 -1.50648,1.109012 -1.50649,1.109012 -1.10671,1.389973 -1.10671,1.389973 -0.64384,1.363363 -0.64384,1.363363 -0.28926,1.569948 -0.28926,1.569947 0.001,1.605053 0.001,1.605052 0.52673,3.571875 0.52673,3.571876 0.001,2.65639 0.001,2.656391 -0.40884,1.576943 -0.40884,1.576942 -0.91632,1.852084 -0.91632,1.852083 -1.36439,1.816182 -1.3644,1.816183 -1.72035,1.419029 -1.72035,1.41902 -2.13853,1.05873 -2.13853,1.05873 -2.11667,0.5631 -2.11667,0.56309 -3.65117,0.0541 -3.65117,0.0541 -3.02402,5.14302 -3.02401,5.14302 -0.33627,0.0622 -0.33627,0.0622 z m 15.31395,-5.96319 3.06739,-4.69635 0.0646,-0.072 0.0646,-0.072 1.6919,0.398815 1.69189,0.398815 2.51354,-0.0026 2.51354,-0.0026 1.19063,-0.274214 1.19062,-0.274213 1.65778,-0.816009 1.65778,-0.81601 1.64951,-1.749087 1.64951,-1.749087 0.96846,-1.850576 0.96846,-1.850577 0.46862,-1.5875 0.46863,-1.5875 -0.0185,-2.248958 -0.0185,-2.248959 -0.55869,-3.022836 -0.55869,-3.022836 v -2.411679 -2.41168 l 0.40259,-1.576943 0.4026,-1.576943 0.79656,-1.637309 0.79657,-1.63731 0.79086,-0.665464 0.79086,-0.665464 -0.57409,-0.307242 -0.57409,-0.307241 -1.64904,-1.534104 -1.64905,-1.534103 -0.83944,-0.434094 -0.83945,-0.434095 -1.27409,-0.150897 -1.27409,-0.150897 -1.3372,0.444146 -1.3372,0.444146 -1.06535,1.155763 -1.06534,1.155763 -0.40938,1.409409 -0.40938,1.40941 0.0653,5.423959 0.0653,5.423958 -0.71865,1.463271 -0.71865,1.463271 -0.8027,0.769043 -0.80271,0.769043 v -0.415739 -0.415739 l -1.05906,-2.115945 -1.05907,-2.115945 -1.82982,-1.726161 -1.82982,-1.726161 -1.67518,-0.925015 -1.67518,-0.925014 -1.96318,-0.698004 -1.96319,-0.698004 -3.72535,-0.645228 -3.72536,-0.645227 -1.98437,-0.553547 -1.98438,-0.553547 -1.70659,-0.68212 -1.7066,-0.682121 -1.60069,-0.938071 -1.6007,-0.938071 -1.29831,-1.205401 -1.29831,-1.205402 -0.75221,-1.176279 -0.75221,-1.17628 v 2.662976 2.662976 l 0.40956,2.348603 0.40956,2.348604 0.78971,2.357116 0.7897,2.357116 1.20215,2.327575 1.20214,2.327576 1.28402,1.69615 1.28402,1.69615 1.4078,1.202188 1.40779,1.202188 1.97908,1.219758 1.97907,1.219757 1.98968,0.767142 1.98967,0.767143 2.12516,0.542454 2.12516,0.542455 1.57901,0.176723 1.57901,0.176723 0.31304,0.163712 0.31304,0.163712 -8.74278,6.213761 -8.74278,6.213768 6.84224,3.35445 6.84224,3.35445 0.33552,0.0223 0.33553,0.0223 z"
       id="path205"
       inkscape:label="pomba"
       transform="translate(3.7336751,12.449065)" /><path
       style="fill:#00b0fc"
       d="m 28.449241,208.15895 1.364657,-2.18281 1.73275,-2.64583 1.732751,-2.64583 1.254739,-2.45978 1.254738,-2.45978 0.447614,-2.01194 0.447615,-2.01194 -0.158991,-1.87828 -0.15899,-1.87828 -0.505286,-1.46794 -0.505285,-1.46794 -0.598197,-1.17256 -0.598196,-1.17256 -0.791702,-0.98517 -0.791702,-0.98516 -2.14846,-1.78869 -2.14846,-1.78869 -2.607674,-2.52315 -2.607674,-2.52315 -1.511222,-1.85208 -1.511221,-1.85208 -0.827948,-1.21781 -0.827947,-1.21781 -1.17605,-2.35407 -1.17605,-2.35406 -0.695368,-2.21306 -0.695367,-2.21306 -0.376078,-2.28486 -0.376078,-2.28486 -0.175387,-2.18281 -0.175387,-2.18281 h 33.263831 33.263831 l -0.179623,2.05052 -0.179624,2.05052 -0.389907,2.50221 -0.389907,2.50221 -0.775253,2.31397 -0.775252,2.31398 -1.043175,2.06298 -1.043175,2.06298 -1.399309,1.98438 -1.399308,1.98437 -2.527673,2.61517 -2.527672,2.61517 -3.342569,2.99587 -3.342569,2.99588 -0.971386,1.32329 -0.971386,1.32329 -0.784504,2.1496 -0.784504,2.14959 -0.156547,1.89628 -0.156547,1.89628 0.284592,1.51869 0.284593,1.51869 0.70723,1.7886 0.707229,1.78861 1.566166,2.64583 1.566167,2.64583 0.877637,1.19063 0.877638,1.19062 1.358172,2.18281 1.358173,2.18282 H 46.799669 27.084584 Z m 24.775636,-5.42395 -0.101181,-0.19844 -1.247559,-2.55212 -1.247559,-2.55213 -0.549304,-2.07808 -0.549305,-2.07809 -0.01325,-2.91041 -0.01325,-2.91042 0.586872,-2.24896 0.586871,-2.24896 1.017836,-2.17685 1.017835,-2.17684 1.404862,-2.05649 1.404861,-2.05649 4.790151,-4.7625 4.790151,-4.7625 1.261822,-1.71979 1.261822,-1.71979 0.801807,-1.58631 0.801807,-1.58632 0.492567,-1.43167 0.492567,-1.43167 v -0.0909 -0.0909 H 46.781839 23.348385 l 0.180033,0.59532 0.180033,0.59531 0.730059,1.90413 0.73006,1.90413 1.538353,2.3292 1.538353,2.3292 5.20363,5.15938 5.20363,5.15937 0.8016,1.05834 0.801601,1.05833 0.95433,1.73716 0.95433,1.73716 0.545684,1.57013 0.545684,1.57014 0.398109,1.69435 0.398109,1.69435 0.01002,2.6729 0.01002,2.67291 -0.562941,2.37962 -0.562942,2.37962 -1.246569,2.51354 -1.24657,2.51354 -0.08987,0.19844 -0.08986,0.19843 h 6.526389 6.526389 z"
       id="path204"
       inkscape:label="calice"
       transform="translate(3.7336751,12.449065)" /><path
       style="fill:#6500fd"
       d="m 129.48196,205.57927 v -3.70417 h 23.01875 23.01875 v 3.70417 3.70416 h -23.01875 -23.01875 z m -0.8809,-9.72344 -0.11838,-0.19844 -5.72976,-21.16667 -5.72977,-21.16666 -0.10271,-0.30578 -0.10272,-0.30577 3.46466,1.57511 3.46465,1.57512 1.45115,0.6865 1.45116,0.68651 2.28271,1.52688 2.28272,1.52688 3.48782,2.92661 3.48782,2.9266 0.1139,-0.19162 0.1139,-0.19163 1.23949,-3.0427 1.23948,-3.04271 1.79023,-3.57369 1.79023,-3.57368 1.38605,-2.23476 1.38604,-2.23476 0.82664,-1.07072 0.82665,-1.07073 1.7079,-2.05052 1.7079,-2.05052 h 0.20216 0.20216 l 1.99525,2.37809 1.99526,2.37809 1.29059,1.92139 1.29058,1.92139 1.45452,2.64583 1.45453,2.64584 1.26973,2.77812 1.26974,2.77813 0.99088,2.46009 0.99088,2.4601 0.19771,0.0262 0.19772,0.0262 2.24007,-1.95713 2.24007,-1.95713 2.55471,-1.91882 2.5547,-1.91882 5.79488,-2.94077 5.79487,-2.94078 -0.12641,0.36168 -0.1264,0.36168 -5.78336,21.3651 -5.78336,21.36511 h -23.88043 -23.88043 z m 45.91065,-18.3224 3.88704,-10.98021 0.0156,-0.34874 0.0156,-0.34875 -0.76575,0.54526 -0.76574,0.54526 -2.71679,2.58161 -2.71679,2.58161 -3.8157,4.23334 -3.8157,4.23333 -0.19192,0.0714 -0.19191,0.0714 -1.53581,-5.09845 -1.53582,-5.09846 -1.32505,-3.57187 -1.32505,-3.57188 -1.16215,-2.64583 -1.16216,-2.64583 -1.27337,-2.366 -1.27337,-2.366 -0.26011,-0.0867 -0.26012,-0.0867 -1.13142,1.97746 -1.13141,1.97747 -1.66848,3.78253 -1.66847,3.78253 -1.44516,4.23333 -1.44516,4.23334 -1.14938,3.798 -1.14938,3.79801 -1.33652,-1.43201 -1.33652,-1.43201 -4.56783,-4.79615 -4.56782,-4.79615 -1.4579,-1.24551 -1.45789,-1.24552 -0.13601,0.13601 -0.13601,0.13601 3.84797,10.94799 3.84798,10.948 0.12334,0.33256 0.12335,0.33257 18.06541,-0.068 18.06541,-0.068 z"
       id="path203"
       inkscape:label="coroa"
       transform="translate(3.7336751,12.449065)" /><path
       style="fill:#656565"
       d="M -18.420122,126.73343 V 7.670929 H 100.64238 219.70488 V 126.73343 245.79593 H 100.64238 -18.420122 Z m 224.895832,0 V 20.900096 H 100.64238 -5.1909558 V 126.73343 232.56677 H 100.64238 206.47571 Z m -109.073756,50.73386 -0.06687,-47.42657 -47.426562,-0.0669 -47.4265622,-0.0669 v -2.64511 -2.64511 H 49.974669 97.467377 V 76.727181 28.837596 h 2.645833 2.64583 v 47.889585 47.889589 h 48.02188 48.02187 v 2.64583 2.64583 h -48.02187 -48.02188 v 47.49271 47.49271 h -2.64511 -2.645108 z"
       id="path202"
       inkscape:label="moldura"
       transform="translate(3.7336751,12.449065)" /><path
       style="fill:#fd0202"
       d="M 43.492377,90.882389 V 66.143847 h -12.7 -12.7 v -4.363059 -4.36306 l 12.633854,-0.06871 12.633855,-0.06871 0.05757,-10.939253 0.05758,-10.939253 4.165855,0.03734 4.165855,0.03734 0.08415,0.08415 0.08415,0.08415 0.05804,10.817768 0.05804,10.817767 12.633854,0.06871 12.633855,0.06871 v 4.36306 4.363059 h -12.7 -12.7 V 90.882389 115.62093 H 47.72571 43.492377 Z"
       id="path201"
       inkscape:label="cruz"
       transform="translate(3.7336751,12.449065)" /></g></svg>
